<svg fill="none" height="16" viewBox="0 0 16 16" width="16" xmlns="http://www.w3.org/2000/svg"><path d="m16 8c0-4.41824-3.5818-8-8-8-4.41824 0-8 3.58176-8 8 0 3.7517 2.58304 6.8998 6.06752 7.7645v-5.3197h-1.6496v-2.4448h1.6496v-1.05344c0-2.72288 1.23232-3.98496 3.9056-3.98496.50688 0 1.38148.09952 1.73918.19872v2.216c-.1888-.01984-.5168-.02976-.9241-.02976-1.31172 0-1.8186.49696-1.8186 1.7888v.86464h2.6131l-.4489 2.4448h-2.1642v5.4966c3.9606-.4784 7.0304-3.8512 7.0304-7.9414z" fill="#0866ff"/><path d="m11.1338 10.4448.449-2.44479h-2.61315v-.86464c0-1.29184.50688-1.7888 1.81855-1.7888.4074 0 .7354.00992.9242.02976v-2.216c-.3578-.09952-1.2324-.19872-1.73923-.19872-2.67328 0-3.9056 1.26208-3.9056 3.98496v1.05344h-1.6496v2.44479h1.6496v5.3197c.61888.1536 1.26624.2355 1.93248.2355.328 0 .65152-.0202.96928-.0586v-5.4966z" fill="#fff"/></svg>