<svg fill="none" height="16" viewBox="0 0 16 16" width="16" xmlns="http://www.w3.org/2000/svg"><g clip-rule="evenodd" fill-rule="evenodd"><path d="m15.361 8.17426c0-.54364-.0488-1.06636-.1394-1.56818h-7.22062v2.9656h4.12602c-.1777.95832-.7178 1.77032-1.5298 2.31392v1.9237h2.4777c1.4497-1.3347 2.2861-3.3002 2.2861-5.63504z" fill="#4285f4"/><path d="m8.00063 15.6665c2.06997 0 3.80547-.6865 5.07397-1.8574l-2.4778-1.9236c-.68648.46-1.56466.7318-2.59617.7318-1.99682 0-3.68697-1.3486-4.28985-3.16076h-2.56137v1.98636c1.26152 2.5056 3.85425 4.2236 6.85122 4.2236z" fill="#34a853"/><path d="m3.7108 9.4567c-.15333-.46-.24045-.95136-.24045-1.45666 0-.50531.08712-.99667.24045-1.45667v-1.98636h-2.56136c-.519244 1.035-.815456 2.20591-.815456 3.44303s.296212 2.40806.815456 3.44306z" fill="#fbbc05"/><path d="m8.00063 3.38256c1.1256 0 2.13617.38681 2.93077 1.14651l2.1989-2.19894c-1.3277-1.23712-3.0632-1.996817-5.12967-1.996817-2.99697 0-5.5897 1.718027-6.85122 4.223637l2.56137 1.98636c.60288-1.81212 2.29303-3.16075 4.28985-3.16075z" fill="#ea4335"/></g></svg>