<svg width="16" height="16" viewBox="0 0 16 16" fill="none" xmlns="http://www.w3.org/2000/svg">
<path d="M8.41876 0.090625C8.28751 0.03125 8.14689 0 8.00001 0C7.85314 0 7.71251 0.03125 7.58126 0.090625L1.69689 2.5875C1.00939 2.87813 0.496889 3.55625 0.500014 4.375C0.515639 7.475 1.79064 13.1469 7.17501 15.725C7.69689 15.975 8.30314 15.975 8.82501 15.725C14.2094 13.1469 15.4844 7.475 15.5 4.375C15.5031 3.55625 14.9906 2.87813 14.3031 2.5875L8.41876 0.090625ZM9.75001 6.5C9.75001 7.19688 9.34064 7.8 8.75001 8.08125V10.25C8.75001 10.6656 8.41564 11 8.00001 11C7.58439 11 7.25001 10.6656 7.25001 10.25V8.08125C6.65939 7.8 6.25001 7.19688 6.25001 6.5C6.25001 5.53438 7.03439 4.75 8.00001 4.75C8.96564 4.75 9.75001 5.53438 9.75001 6.5Z" fill="#6C757D"/>
</svg>
