<svg width="12" height="16" viewBox="0 0 12 16" fill="none" xmlns="http://www.w3.org/2000/svg">
<path d="M12 2C12 0.896875 11.1031 0 10 0H2C0.896875 0 0 0.896875 0 2V14C0 15.1031 0.896875 16 2 16H10C11.1031 16 12 15.1031 12 14V2ZM8 6C8 7.10313 7.10313 8 6 8C4.89687 8 4 7.10313 4 6C4 4.89687 4.89687 4 6 4C7.10313 4 8 4.89687 8 6ZM2.5 11.1438C2.5 9.95938 3.45938 9 4.64375 9H7.35938C8.54375 9 9.50313 9.95938 9.50313 11.1438C9.50313 11.6156 9.11875 12 8.64688 12H3.35625C2.88438 12 2.5 11.6156 2.5 11.1438Z" fill="#6C757D"/>
</svg>
