<svg width="16" height="16" viewBox="0 0 16 16" fill="none" xmlns="http://www.w3.org/2000/svg">
<path d="M8 4.79997C9.80775 4.79997 11.3142 6.19997 11.3142 7.99997C11.3142 9.79997 9.80775 11.2 8 11.2C6.19225 11.2 4.68578 9.79997 4.68578 7.99997C4.68578 6.19997 6.19225 4.79997 8 4.79997ZM8 6.39997C7.09612 6.39997 6.39311 7.09997 6.39311 7.99997C6.39311 8.89997 7.09612 9.59997 8 9.59997C8.90388 9.59997 9.60689 8.89997 9.60689 7.99997C9.60689 7.09997 8.90388 6.39997 8 6.39997ZM6.39311 16C6.19225 16 5.99138 15.9 5.99138 15.7L5.69009 13.6C5.18794 13.4 4.68578 13.1 4.28406 12.8L2.27545 13.6C2.07458 13.7 1.87372 13.6 1.77329 13.4L0.166399 10.6C-0.0344624 10.4 -0.0344624 10.2 0.166399 10.1L1.87372 8.79997L1.77329 7.99997L1.87372 7.19997L0.166399 5.89997C-0.0344624 5.79997 -0.0344624 5.59997 0.0659684 5.39997L1.67286 2.59997C1.77329 2.39997 1.97415 2.39997 2.17501 2.39997L4.18363 3.19997C4.58535 2.89997 5.08751 2.59997 5.58966 2.39997L5.89095 0.299969C5.99138 0.0999695 6.09182 -3.05176e-05 6.39311 -3.05176e-05H9.70732C9.90819 -3.05176e-05 10.109 0.0999695 10.109 0.299969L10.4103 2.39997C10.9125 2.59997 11.4146 2.89997 11.8164 3.19997L13.825 2.39997C14.0258 2.29997 14.2267 2.39997 14.3271 2.59997L15.934 5.39997C16.0345 5.59997 16.0345 5.79997 15.8336 5.89997L14.1263 7.19997L14.2267 7.99997L14.1263 8.79997L15.8336 10.1C16.0345 10.2 16.0345 10.4 15.934 10.6L14.3271 13.4C14.2267 13.6 14.0258 13.6 13.825 13.6L11.8164 12.8C11.4146 13.1 10.9125 13.4 10.4103 13.6L10.109 15.7C10.109 15.9 9.90819 16 9.70732 16H6.39311ZM7.39742 1.59997L7.09612 3.69997C6.09182 3.89997 5.18794 4.39997 4.58535 5.09997L2.57674 4.29997L1.97415 5.29997L3.68148 6.49997C3.38018 7.39997 3.38018 8.49997 3.68148 9.39997L1.97415 10.7L2.57674 11.7L4.58535 10.9C5.18794 11.6 6.09182 12.1 7.09612 12.3L7.39742 14.4H8.60259L8.90388 12.3C9.90819 12.1 10.7116 11.6 11.4146 10.9L13.4233 11.7L14.0258 10.7L12.3185 9.49997C12.6198 8.59997 12.6198 7.49997 12.3185 6.59997L14.0258 5.29997L13.4233 4.29997L11.4146 5.09997C10.8121 4.39997 9.90819 3.89997 8.90388 3.69997L8.60259 1.59997H7.39742Z" fill="white"/>
</svg>
